# xmcd
#
# Track frame offsets:
#	150
#	12390
#	25028
#	38636
#	51027
#	64688
#	76939
#	92999
#	103139
#	116164
#	133835
#	149316
#	164710
#	176782
#	196737
#
# Disc length: 2774 seconds
# Revision: 0
# Processed by: cddbd v1.5.2PL0 Copyright (c) Steve Scherf et al.
# Submitted via: dBpowerAMP V12.0
#
DISCID=d00ad40f
DTITLE=The Manhattans - Sweet Talking Soul 1965-1990 [CD1 of 3)
DYEAR=2008
DGENRE=R&B
TTITLE0=I Wanna Be (Your Everything)
TTITLE1=Searchin' For My Baby
TTITLE2=Follow Your Heart
TTITLE3=Baby I Need You
TTITLE4=Can I
TTITLE5=I Bet'cha (Couldn't Love Me)
TTITLE6=When We're Made As One
TTITLE7=I Call It Love
TTITLE8=It's Gonna Take A Lot To Bring Me Back
TTITLE9=If My Heart Could Speak
TTITLE10=From Atlanta To Goodbye
TTITLE11=A Million To One
TTITLE12=Cry If You Wanna Cry
TTITLE13=One Life To Live
TTITLE14=Back Up
EXTD=
EXTT0=
EXTT1=
EXTT2=
EXTT3=
EXTT4=
EXTT5=
EXTT6=
EXTT7=
EXTT8=
EXTT9=
EXTT10=
EXTT11=
EXTT12=
EXTT13=
EXTT14=
PLAYORDER=
